<mxfile host="Electron" modified="2024-04-19T16:12:02.192Z" agent="Mozilla/5.0 (Windows NT 10.0; Win64; x64) AppleWebKit/537.36 (KHTML, like Gecko) draw.io/24.2.5 Chrome/120.0.6099.109 Electron/28.1.0 Safari/537.36" etag="wStKK1qpMVYgT_xa3gJT" version="24.2.5" type="device">
  <diagram id="C5RBs43oDa-KdzZeNtuy" name="Page-1">
    <mxGraphModel dx="1373" dy="566" grid="1" gridSize="10" guides="1" tooltips="1" connect="1" arrows="1" fold="1" page="1" pageScale="1" pageWidth="827" pageHeight="1169" math="0" shadow="0">
      <root>
        <mxCell id="WIyWlLk6GJQsqaUBKTNV-0" />
        <mxCell id="WIyWlLk6GJQsqaUBKTNV-1" parent="WIyWlLk6GJQsqaUBKTNV-0" />
        <mxCell id="Fj9VOUt9VLm28xdG6WXE-35" value="No" style="edgeStyle=orthogonalEdgeStyle;rounded=0;orthogonalLoop=1;jettySize=auto;html=1;exitX=1;exitY=0.5;exitDx=0;exitDy=0;entryX=0;entryY=0.5;entryDx=0;entryDy=0;" edge="1" parent="WIyWlLk6GJQsqaUBKTNV-1" source="Fj9VOUt9VLm28xdG6WXE-43" target="Fj9VOUt9VLm28xdG6WXE-1">
          <mxGeometry x="-0.3143" relative="1" as="geometry">
            <mxPoint x="185" y="215" as="sourcePoint" />
            <mxPoint as="offset" />
          </mxGeometry>
        </mxCell>
        <mxCell id="Fj9VOUt9VLm28xdG6WXE-41" value="Yes" style="edgeStyle=orthogonalEdgeStyle;rounded=0;orthogonalLoop=1;jettySize=auto;html=1;exitX=0;exitY=0.5;exitDx=0;exitDy=0;entryX=1;entryY=0.5;entryDx=0;entryDy=0;" edge="1" parent="WIyWlLk6GJQsqaUBKTNV-1" source="Fj9VOUt9VLm28xdG6WXE-43" target="Fj9VOUt9VLm28xdG6WXE-40">
          <mxGeometry relative="1" as="geometry">
            <mxPoint x="95" y="215" as="sourcePoint" />
          </mxGeometry>
        </mxCell>
        <mxCell id="Fj9VOUt9VLm28xdG6WXE-36" style="edgeStyle=orthogonalEdgeStyle;rounded=0;orthogonalLoop=1;jettySize=auto;html=1;exitX=1;exitY=0.5;exitDx=0;exitDy=0;" edge="1" parent="WIyWlLk6GJQsqaUBKTNV-1" source="Fj9VOUt9VLm28xdG6WXE-1" target="Fj9VOUt9VLm28xdG6WXE-2">
          <mxGeometry relative="1" as="geometry" />
        </mxCell>
        <mxCell id="Fj9VOUt9VLm28xdG6WXE-1" value="Agents vote" style="whiteSpace=wrap;html=1;" vertex="1" parent="WIyWlLk6GJQsqaUBKTNV-1">
          <mxGeometry x="230" y="220" width="90" height="40" as="geometry" />
        </mxCell>
        <mxCell id="Fj9VOUt9VLm28xdG6WXE-22" style="edgeStyle=orthogonalEdgeStyle;rounded=0;orthogonalLoop=1;jettySize=auto;html=1;exitX=0.75;exitY=1;exitDx=0;exitDy=0;entryX=0.75;entryY=0;entryDx=0;entryDy=0;" edge="1" parent="WIyWlLk6GJQsqaUBKTNV-1" source="Fj9VOUt9VLm28xdG6WXE-2" target="Fj9VOUt9VLm28xdG6WXE-4">
          <mxGeometry relative="1" as="geometry" />
        </mxCell>
        <mxCell id="Fj9VOUt9VLm28xdG6WXE-27" style="edgeStyle=orthogonalEdgeStyle;rounded=0;orthogonalLoop=1;jettySize=auto;html=1;exitX=0.25;exitY=1;exitDx=0;exitDy=0;entryX=0.75;entryY=0;entryDx=0;entryDy=0;" edge="1" parent="WIyWlLk6GJQsqaUBKTNV-1" source="Fj9VOUt9VLm28xdG6WXE-2" target="Fj9VOUt9VLm28xdG6WXE-3">
          <mxGeometry relative="1" as="geometry" />
        </mxCell>
        <mxCell id="Fj9VOUt9VLm28xdG6WXE-2" value="Intersect" style="whiteSpace=wrap;html=1;" vertex="1" parent="WIyWlLk6GJQsqaUBKTNV-1">
          <mxGeometry x="350" y="220" width="90" height="40" as="geometry" />
        </mxCell>
        <mxCell id="Fj9VOUt9VLm28xdG6WXE-26" style="edgeStyle=orthogonalEdgeStyle;rounded=0;orthogonalLoop=1;jettySize=auto;html=1;exitX=0.75;exitY=1;exitDx=0;exitDy=0;entryX=0.25;entryY=0;entryDx=0;entryDy=0;" edge="1" parent="WIyWlLk6GJQsqaUBKTNV-1" source="Fj9VOUt9VLm28xdG6WXE-3" target="Fj9VOUt9VLm28xdG6WXE-4">
          <mxGeometry relative="1" as="geometry" />
        </mxCell>
        <mxCell id="Fj9VOUt9VLm28xdG6WXE-3" value="Agents vote best 10%" style="whiteSpace=wrap;html=1;" vertex="1" parent="WIyWlLk6GJQsqaUBKTNV-1">
          <mxGeometry x="305" y="290" width="90" height="40" as="geometry" />
        </mxCell>
        <mxCell id="Fj9VOUt9VLm28xdG6WXE-28" style="edgeStyle=orthogonalEdgeStyle;rounded=0;orthogonalLoop=1;jettySize=auto;html=1;exitX=0.5;exitY=1;exitDx=0;exitDy=0;entryX=0.5;entryY=0;entryDx=0;entryDy=0;" edge="1" parent="WIyWlLk6GJQsqaUBKTNV-1" source="Fj9VOUt9VLm28xdG6WXE-4" target="Fj9VOUt9VLm28xdG6WXE-9">
          <mxGeometry relative="1" as="geometry" />
        </mxCell>
        <mxCell id="Fj9VOUt9VLm28xdG6WXE-4" value="Random Selection" style="whiteSpace=wrap;html=1;" vertex="1" parent="WIyWlLk6GJQsqaUBKTNV-1">
          <mxGeometry x="350" y="360" width="90" height="40" as="geometry" />
        </mxCell>
        <mxCell id="Fj9VOUt9VLm28xdG6WXE-29" style="edgeStyle=orthogonalEdgeStyle;rounded=0;orthogonalLoop=1;jettySize=auto;html=1;exitX=0;exitY=0.5;exitDx=0;exitDy=0;entryX=1;entryY=0.5;entryDx=0;entryDy=0;" edge="1" parent="WIyWlLk6GJQsqaUBKTNV-1" source="Fj9VOUt9VLm28xdG6WXE-9" target="Fj9VOUt9VLm28xdG6WXE-11">
          <mxGeometry relative="1" as="geometry" />
        </mxCell>
        <mxCell id="Fj9VOUt9VLm28xdG6WXE-9" value="Crossover" style="whiteSpace=wrap;html=1;" vertex="1" parent="WIyWlLk6GJQsqaUBKTNV-1">
          <mxGeometry x="350" y="430" width="90" height="40" as="geometry" />
        </mxCell>
        <mxCell id="Fj9VOUt9VLm28xdG6WXE-10" value="Mutation" style="whiteSpace=wrap;html=1;" vertex="1" parent="WIyWlLk6GJQsqaUBKTNV-1">
          <mxGeometry x="95" y="360" width="90" height="40" as="geometry" />
        </mxCell>
        <mxCell id="Fj9VOUt9VLm28xdG6WXE-30" style="edgeStyle=orthogonalEdgeStyle;rounded=0;orthogonalLoop=1;jettySize=auto;html=1;exitX=0;exitY=0.5;exitDx=0;exitDy=0;entryX=1;entryY=0.5;entryDx=0;entryDy=0;" edge="1" parent="WIyWlLk6GJQsqaUBKTNV-1" source="Fj9VOUt9VLm28xdG6WXE-11" target="Fj9VOUt9VLm28xdG6WXE-12">
          <mxGeometry relative="1" as="geometry" />
        </mxCell>
        <mxCell id="Fj9VOUt9VLm28xdG6WXE-11" value="Remove Duplicates and known bad" style="whiteSpace=wrap;html=1;" vertex="1" parent="WIyWlLk6GJQsqaUBKTNV-1">
          <mxGeometry x="230" y="430" width="90" height="40" as="geometry" />
        </mxCell>
        <mxCell id="Fj9VOUt9VLm28xdG6WXE-32" value="No" style="edgeStyle=orthogonalEdgeStyle;rounded=0;orthogonalLoop=1;jettySize=auto;html=1;exitX=0.625;exitY=0;exitDx=0;exitDy=0;entryX=0;entryY=0.5;entryDx=0;entryDy=0;" edge="1" parent="WIyWlLk6GJQsqaUBKTNV-1" source="Fj9VOUt9VLm28xdG6WXE-12" target="Fj9VOUt9VLm28xdG6WXE-4">
          <mxGeometry x="-0.9429" relative="1" as="geometry">
            <Array as="points">
              <mxPoint x="155" y="415" />
              <mxPoint x="270" y="415" />
              <mxPoint x="270" y="380" />
            </Array>
            <mxPoint as="offset" />
          </mxGeometry>
        </mxCell>
        <mxCell id="Fj9VOUt9VLm28xdG6WXE-42" value="Yes" style="edgeStyle=orthogonalEdgeStyle;rounded=0;orthogonalLoop=1;jettySize=auto;html=1;exitX=0.375;exitY=0;exitDx=0;exitDy=0;entryX=0.25;entryY=1;entryDx=0;entryDy=0;" edge="1" parent="WIyWlLk6GJQsqaUBKTNV-1" source="Fj9VOUt9VLm28xdG6WXE-12" target="Fj9VOUt9VLm28xdG6WXE-10">
          <mxGeometry x="-0.2261" relative="1" as="geometry">
            <mxPoint as="offset" />
          </mxGeometry>
        </mxCell>
        <mxCell id="Fj9VOUt9VLm28xdG6WXE-12" value="Generation size reached?" style="shape=hexagon;perimeter=hexagonPerimeter2;whiteSpace=wrap;html=1;fixedSize=1;" vertex="1" parent="WIyWlLk6GJQsqaUBKTNV-1">
          <mxGeometry x="80" y="430" width="120" height="40" as="geometry" />
        </mxCell>
        <mxCell id="Fj9VOUt9VLm28xdG6WXE-34" style="edgeStyle=orthogonalEdgeStyle;rounded=0;orthogonalLoop=1;jettySize=auto;html=1;exitX=0.5;exitY=0;exitDx=0;exitDy=0;entryX=0.5;entryY=1;entryDx=0;entryDy=0;entryPerimeter=0;" edge="1" parent="WIyWlLk6GJQsqaUBKTNV-1" source="Fj9VOUt9VLm28xdG6WXE-37">
          <mxGeometry relative="1" as="geometry">
            <mxPoint x="140" y="260" as="targetPoint" />
          </mxGeometry>
        </mxCell>
        <mxCell id="Fj9VOUt9VLm28xdG6WXE-38" value="" style="edgeStyle=orthogonalEdgeStyle;rounded=0;orthogonalLoop=1;jettySize=auto;html=1;exitX=0.5;exitY=0;exitDx=0;exitDy=0;entryX=0.5;entryY=1;entryDx=0;entryDy=0;entryPerimeter=0;" edge="1" parent="WIyWlLk6GJQsqaUBKTNV-1" source="Fj9VOUt9VLm28xdG6WXE-10" target="Fj9VOUt9VLm28xdG6WXE-37">
          <mxGeometry relative="1" as="geometry">
            <mxPoint x="160" y="340" as="sourcePoint" />
            <mxPoint x="160" y="285" as="targetPoint" />
          </mxGeometry>
        </mxCell>
        <mxCell id="Fj9VOUt9VLm28xdG6WXE-37" value="New Generation" style="whiteSpace=wrap;html=1;" vertex="1" parent="WIyWlLk6GJQsqaUBKTNV-1">
          <mxGeometry x="95" y="290" width="90" height="40" as="geometry" />
        </mxCell>
        <mxCell id="Fj9VOUt9VLm28xdG6WXE-40" value="Print Results" style="whiteSpace=wrap;html=1;" vertex="1" parent="WIyWlLk6GJQsqaUBKTNV-1">
          <mxGeometry x="-30" y="220" width="90" height="40" as="geometry" />
        </mxCell>
        <mxCell id="Fj9VOUt9VLm28xdG6WXE-43" value="Max Generations reached?" style="shape=hexagon;perimeter=hexagonPerimeter2;whiteSpace=wrap;html=1;fixedSize=1;" vertex="1" parent="WIyWlLk6GJQsqaUBKTNV-1">
          <mxGeometry x="90" y="220" width="110" height="40" as="geometry" />
        </mxCell>
      </root>
    </mxGraphModel>
  </diagram>
</mxfile>
